<svg width="40" height="41" viewBox="0 0 40 41" fill="none" xmlns="http://www.w3.org/2000/svg">
<path d="M19.4599 3.04592C19.1026 3.10707 18.7591 3.22844 18.4449 3.40454L5.55526 10.631C5.08242 10.8961 4.68977 11.2774 4.41675 11.7365C4.14375 12.1956 4.00001 12.7165 4 13.2466V27.6996C4.00001 28.2298 4.14375 28.7506 4.41675 29.2098C4.68977 29.6688 5.08242 30.0502 5.55526 30.3151L18.4449 37.5416C18.9177 37.8067 19.4541 37.9463 20.0001 37.9463C20.546 37.9463 21.0824 37.8067 21.5552 37.5416L34.4448 30.3151C34.9176 30.0502 35.3102 29.6688 35.5832 29.2098C35.8563 28.7506 36 28.2298 36 27.6996V13.2466C36 12.7165 35.8563 12.1956 35.5832 11.7365C35.3102 11.2774 34.9176 10.8961 34.4448 10.631L21.5552 3.40454C20.9218 3.04955 20.18 2.92258 19.4599 3.04592ZM28.6617 12.9066C29.1424 12.9288 29.6095 13.0679 30.0204 13.3111C30.4313 13.5544 30.7726 13.8938 31.0132 14.2985C31.2018 14.6158 31.3243 14.966 31.3735 15.3292C31.4228 15.6925 31.3979 16.0617 31.3002 16.4155C31.2025 16.7694 31.0341 17.1012 30.8044 17.3918C30.5746 17.6825 30.2882 17.9264 29.9616 18.1095C29.4742 18.3769 28.9171 18.5002 28.3587 18.4645C27.8002 18.4286 27.2646 18.2351 26.8179 17.9078L22.296 20.4431C21.9387 20.6435 21.6419 20.9317 21.4355 21.2787C21.2292 21.6258 21.1205 22.0195 21.1205 22.4202V27.4888C21.6361 27.7008 22.0767 28.0544 22.388 28.5063C22.6993 28.9581 22.8679 29.4884 22.8731 30.032C22.8731 30.7719 22.5705 31.4815 22.0317 32.0047C21.4928 32.528 20.762 32.822 20.0001 32.822C19.2381 32.822 18.5072 32.528 17.9684 32.0047C17.4297 31.4815 17.1269 30.7719 17.1269 30.032C17.1321 29.4884 17.3007 28.9581 17.6121 28.5063C17.9235 28.0544 18.364 27.7008 18.8794 27.4888V22.4185C18.8794 22.0177 18.7708 21.6241 18.5644 21.277C18.3582 20.93 18.0614 20.6418 17.7041 20.4414L13.1833 17.907C12.7364 18.2346 12.2007 18.4284 11.642 18.4643C11.0832 18.5004 10.5259 18.377 10.0383 18.1095C9.71164 17.9264 9.42524 17.6825 9.19546 17.3918C8.96581 17.1012 8.79728 16.7694 8.6997 16.4155C8.602 16.0617 8.57709 15.6925 8.62634 15.3292C8.67559 14.966 8.79809 14.6158 8.98669 14.2985C9.2273 13.8938 9.56861 13.5544 9.97948 13.3112C10.3903 13.068 10.8575 12.9289 11.3382 12.9067C11.8883 12.8812 12.4344 13.0098 12.9115 13.2773C13.3994 13.5515 13.7936 13.9591 14.0447 14.4492C14.2958 14.9393 14.3929 15.4905 14.3238 16.0339L18.8258 18.5578C19.1832 18.7581 19.5886 18.8636 20.0012 18.8636C20.4139 18.8636 20.8192 18.7581 21.1767 18.5578L25.6967 16.0236C25.6278 15.4839 25.7229 14.9364 25.9701 14.4485C26.2174 13.9606 26.6061 13.5535 27.0884 13.2773C27.5655 13.0098 28.1115 12.8811 28.6617 12.9066Z" fill="url(#paint0_linear_119_5)"/>
<defs>
<linearGradient id="paint0_linear_119_5" x1="12" y1="7.01785" x2="28.8817" y2="34.6608" gradientUnits="userSpaceOnUse">
<stop stop-color="#2086F0"/>
<stop offset="1" stop-color="#00B3FF"/>
</linearGradient>
</defs>
</svg>
